G04 #@! TF.GenerationSoftware,KiCad,Pcbnew,10.0.1*
G04 #@! TF.CreationDate,2026-06-08T16:12:32-07:00*
G04 #@! TF.ProjectId,TMPM4KNF10AFG,544d504d-344b-44e4-9631-304146472e6b,rev?*
G04 #@! TF.SameCoordinates,Original*
G04 #@! TF.FileFunction,Paste,Top*
G04 #@! TF.FilePolarity,Positive*
%FSLAX46Y46*%
G04 Gerber Fmt 4.6, Leading zero omitted, Abs format (unit mm)*
G04 Created by KiCad (PCBNEW 10.0.1) date 2026-06-08 16:12:32*
%MOMM*%
%LPD*%
G01*
G04 APERTURE LIST*
G04 Aperture macros list*
%AMRoundRect*
0 Rectangle with rounded corners*
0 $1 Rounding radius*
0 $2 $3 $4 $5 $6 $7 $8 $9 X,Y pos of 4 corners*
0 Add a 4 corners polygon primitive as box body*
4,1,4,$2,$3,$4,$5,$6,$7,$8,$9,$2,$3,0*
0 Add four circle primitives for the rounded corners*
1,1,$1+$1,$2,$3*
1,1,$1+$1,$4,$5*
1,1,$1+$1,$6,$7*
1,1,$1+$1,$8,$9*
0 Add four rect primitives between the rounded corners*
20,1,$1+$1,$2,$3,$4,$5,0*
20,1,$1+$1,$4,$5,$6,$7,0*
20,1,$1+$1,$6,$7,$8,$9,0*
20,1,$1+$1,$8,$9,$2,$3,0*%
G04 Aperture macros list end*
%ADD10C,0.000000*%
%ADD11RoundRect,0.250000X0.337500X0.475000X-0.337500X0.475000X-0.337500X-0.475000X0.337500X-0.475000X0*%
%ADD12RoundRect,0.250000X-0.337500X-0.475000X0.337500X-0.475000X0.337500X0.475000X-0.337500X0.475000X0*%
%ADD13RoundRect,0.250000X-0.350000X-0.450000X0.350000X-0.450000X0.350000X0.450000X-0.350000X0.450000X0*%
%ADD14R,1.969999X0.532600*%
%ADD15R,2.387600X3.200400*%
%ADD16RoundRect,0.250000X0.450000X-0.350000X0.450000X0.350000X-0.450000X0.350000X-0.450000X-0.350000X0*%
%ADD17RoundRect,0.250000X-0.475000X0.337500X-0.475000X-0.337500X0.475000X-0.337500X0.475000X0.337500X0*%
%ADD18R,0.558000X0.604799*%
%ADD19RoundRect,0.250000X0.350000X0.450000X-0.350000X0.450000X-0.350000X-0.450000X0.350000X-0.450000X0*%
%ADD20RoundRect,0.250000X-0.450000X0.350000X-0.450000X-0.350000X0.450000X-0.350000X0.450000X0.350000X0*%
%ADD21R,0.604799X0.558000*%
%ADD22R,4.150000X1.900000*%
%ADD23R,1.750000X3.000000*%
%ADD24RoundRect,0.250000X0.475000X-0.337500X0.475000X0.337500X-0.475000X0.337500X-0.475000X-0.337500X0*%
%ADD25R,1.358900X0.279400*%
%ADD26R,0.279400X1.358900*%
%ADD27R,0.481800X1.157199*%
%ADD28RoundRect,0.250000X-0.275000X-0.350000X0.275000X-0.350000X0.275000X0.350000X-0.275000X0.350000X0*%
%ADD29RoundRect,0.250000X0.300000X0.300000X-0.300000X0.300000X-0.300000X-0.300000X0.300000X-0.300000X0*%
G04 APERTURE END LIST*
D10*
G36*
X98130000Y-118155000D02*
G01*
X95942400Y-118155000D01*
X95942400Y-116754800D01*
X98130000Y-116754800D01*
X98130000Y-118155000D01*
G37*
G36*
X98130000Y-119755200D02*
G01*
X95942400Y-119755200D01*
X95942400Y-118355000D01*
X98130000Y-118355000D01*
X98130000Y-119755200D01*
G37*
G36*
X60493800Y-103855000D02*
G01*
X58306200Y-103855000D01*
X58306200Y-102454800D01*
X60493800Y-102454800D01*
X60493800Y-103855000D01*
G37*
G36*
X60493800Y-105455200D02*
G01*
X58306200Y-105455200D01*
X58306200Y-104055000D01*
X60493800Y-104055000D01*
X60493800Y-105455200D01*
G37*
D11*
X54637500Y-120750000D03*
X52562500Y-120750000D03*
D12*
X101512500Y-122800000D03*
X103587500Y-122800000D03*
D11*
X87187500Y-89900000D03*
X85112500Y-89900000D03*
D13*
X84700000Y-65300000D03*
X86700000Y-65300000D03*
D14*
X94572400Y-116350000D03*
X94572400Y-117620000D03*
X94572400Y-118890000D03*
X94572400Y-120160000D03*
X99500000Y-120160000D03*
X99500000Y-118890000D03*
X99500000Y-117620000D03*
X99500000Y-116350000D03*
D15*
X97036200Y-118255000D03*
D16*
X103350000Y-116250000D03*
X103350000Y-114250000D03*
D12*
X65512500Y-101300000D03*
X67587500Y-101300000D03*
X58750000Y-99300000D03*
X60825000Y-99300000D03*
D17*
X84950000Y-113362500D03*
X84950000Y-115437500D03*
D13*
X91935952Y-84254961D03*
X93935952Y-84254961D03*
D18*
X69599998Y-136850000D03*
X71500000Y-136850000D03*
X70549999Y-134365600D03*
D19*
X98300000Y-73300000D03*
X96300000Y-73300000D03*
D16*
X97650000Y-67850000D03*
X97650000Y-65850000D03*
D20*
X72000000Y-69700000D03*
X72000000Y-71700000D03*
D21*
X91207800Y-68394499D03*
X91207800Y-70294501D03*
X93692200Y-69344500D03*
D22*
X79925000Y-132950000D03*
X86875000Y-132950000D03*
D11*
X54637500Y-117350000D03*
X52562500Y-117350000D03*
D20*
X75600000Y-123150000D03*
X75600000Y-125150000D03*
D13*
X93935952Y-87854961D03*
X95935952Y-87854961D03*
X69500000Y-141550000D03*
X71500000Y-141550000D03*
D17*
X97700000Y-101450000D03*
X97700000Y-103525000D03*
D20*
X89600000Y-73000000D03*
X89600000Y-75000000D03*
D19*
X86500000Y-73050000D03*
X84500000Y-73050000D03*
D20*
X60500000Y-70100000D03*
X60500000Y-72100000D03*
D19*
X51700000Y-132250000D03*
X49700000Y-132250000D03*
D17*
X56900000Y-125150000D03*
X56900000Y-127225000D03*
D16*
X59550000Y-66750000D03*
X59550000Y-64750000D03*
X63950000Y-66750000D03*
X63950000Y-64750000D03*
D23*
X66400000Y-122350000D03*
X59650000Y-122350000D03*
D12*
X66262500Y-73300000D03*
X68337500Y-73300000D03*
D24*
X97800000Y-84192461D03*
X97800000Y-82117461D03*
X81400000Y-68687500D03*
X81400000Y-66612500D03*
D21*
X101200000Y-71399998D03*
X101200000Y-73300000D03*
X103684400Y-72349999D03*
D17*
X105100000Y-62712500D03*
X105100000Y-64787500D03*
D12*
X71650000Y-102750000D03*
X73725000Y-102750000D03*
D22*
X65352500Y-138050000D03*
X58402500Y-138050000D03*
D11*
X90787500Y-120100000D03*
X88712500Y-120100000D03*
D17*
X101750000Y-62712500D03*
X101750000Y-64787500D03*
D25*
X77671250Y-96254960D03*
X77671250Y-96754962D03*
X77671250Y-97254961D03*
X77671250Y-97754960D03*
X77671250Y-98254961D03*
X77671250Y-98754960D03*
X77671250Y-99254962D03*
X77671250Y-99754961D03*
X77671250Y-100254960D03*
X77671250Y-100754961D03*
X77671250Y-101254960D03*
X77671250Y-101754959D03*
X77671250Y-102254961D03*
X77671250Y-102754960D03*
X77671250Y-103254962D03*
X77671250Y-103754961D03*
X77671250Y-104254960D03*
X77671250Y-104754961D03*
X77671250Y-105254960D03*
X77671250Y-105754962D03*
X77671250Y-106254961D03*
X77671250Y-106754960D03*
X77671250Y-107254961D03*
X77671250Y-107754960D03*
X77671250Y-108254962D03*
D26*
X79449999Y-110033711D03*
X79950001Y-110033711D03*
X80450000Y-110033711D03*
X80949999Y-110033711D03*
X81450000Y-110033711D03*
X81949999Y-110033711D03*
X82450001Y-110033711D03*
X82950000Y-110033711D03*
X83449999Y-110033711D03*
X83950000Y-110033711D03*
X84449999Y-110033711D03*
X84950001Y-110033711D03*
X85450000Y-110033711D03*
X85949999Y-110033711D03*
X86450001Y-110033711D03*
X86950000Y-110033711D03*
X87450001Y-110033711D03*
X87950000Y-110033711D03*
X88449999Y-110033711D03*
X88950001Y-110033711D03*
X89450000Y-110033711D03*
X89950001Y-110033711D03*
X90450000Y-110033711D03*
X90949999Y-110033711D03*
X91450001Y-110033711D03*
D25*
X93228750Y-108254962D03*
X93228750Y-107754960D03*
X93228750Y-107254961D03*
X93228750Y-106754962D03*
X93228750Y-106254961D03*
X93228750Y-105754962D03*
X93228750Y-105254960D03*
X93228750Y-104754961D03*
X93228750Y-104254962D03*
X93228750Y-103754961D03*
X93228750Y-103254962D03*
X93228750Y-102754960D03*
X93228750Y-102254961D03*
X93228750Y-101754962D03*
X93228750Y-101254960D03*
X93228750Y-100754961D03*
X93228750Y-100254960D03*
X93228750Y-99754961D03*
X93228750Y-99254962D03*
X93228750Y-98754960D03*
X93228750Y-98254961D03*
X93228750Y-97754960D03*
X93228750Y-97254961D03*
X93228750Y-96754962D03*
X93228750Y-96254960D03*
D26*
X91450001Y-94476211D03*
X90949999Y-94476211D03*
X90450000Y-94476211D03*
X89950001Y-94476211D03*
X89450000Y-94476211D03*
X88950001Y-94476211D03*
X88449999Y-94476211D03*
X87950000Y-94476211D03*
X87450001Y-94476211D03*
X86950000Y-94476211D03*
X86450001Y-94476211D03*
X85949999Y-94476211D03*
X85450000Y-94476211D03*
X84950001Y-94476211D03*
X84449999Y-94476211D03*
X83950000Y-94476211D03*
X83449999Y-94476211D03*
X82950000Y-94476211D03*
X82450001Y-94476211D03*
X81949999Y-94476211D03*
X81450000Y-94476211D03*
X80949999Y-94476211D03*
X80450000Y-94476211D03*
X79950001Y-94476211D03*
X79449999Y-94476211D03*
D17*
X81550000Y-113362500D03*
X81550000Y-115437500D03*
D12*
X66250000Y-69900000D03*
X68325000Y-69900000D03*
D21*
X70615600Y-65249999D03*
X70615600Y-67150001D03*
X73100000Y-66200000D03*
D12*
X84662500Y-68650000D03*
X86737500Y-68650000D03*
D11*
X56725000Y-76300000D03*
X54650000Y-76300000D03*
D19*
X50950000Y-80250000D03*
X48950000Y-80250000D03*
D27*
X69295000Y-128050000D03*
X70565000Y-128050000D03*
X71835000Y-128050000D03*
X73105000Y-128050000D03*
X73105000Y-122512800D03*
X71835000Y-122512800D03*
X70565000Y-122512800D03*
X69295000Y-122512800D03*
D28*
X73450000Y-113350000D03*
X75750000Y-113350000D03*
D13*
X75250000Y-68400000D03*
X77250000Y-68400000D03*
D11*
X67237500Y-130750000D03*
X65162500Y-130750000D03*
D20*
X77000000Y-85500000D03*
X77000000Y-87500000D03*
D13*
X101600000Y-68100000D03*
X103600000Y-68100000D03*
D14*
X61863800Y-105860000D03*
X61863800Y-104590000D03*
X61863800Y-103320000D03*
X61863800Y-102050000D03*
X56936200Y-102050000D03*
X56936200Y-103320000D03*
X56936200Y-104590000D03*
X56936200Y-105860000D03*
D15*
X59400000Y-103955000D03*
D13*
X66300000Y-66500000D03*
X68300000Y-66500000D03*
D20*
X101200000Y-76250000D03*
X101200000Y-78250000D03*
D19*
X102600000Y-97754961D03*
X100600000Y-97754961D03*
X56687500Y-69500000D03*
X54687500Y-69500000D03*
D18*
X54699998Y-63492200D03*
X56600000Y-63492200D03*
X55649999Y-61007800D03*
D11*
X56712500Y-72950000D03*
X54637500Y-72950000D03*
D13*
X74100000Y-91500000D03*
X76100000Y-91500000D03*
D11*
X54637500Y-124150000D03*
X52562500Y-124150000D03*
D12*
X81362500Y-119550000D03*
X83437500Y-119550000D03*
D13*
X76537500Y-119550000D03*
X78537500Y-119550000D03*
D11*
X54750000Y-99300000D03*
X52675000Y-99300000D03*
D13*
X75600000Y-127400000D03*
X77600000Y-127400000D03*
D17*
X78200000Y-113362500D03*
X78200000Y-115437500D03*
D19*
X110200000Y-80900000D03*
X108200000Y-80900000D03*
X56000000Y-132250000D03*
X54000000Y-132250000D03*
D29*
X51700000Y-135850000D03*
X48900000Y-135850000D03*
D11*
X97437500Y-122750000D03*
X95362500Y-122750000D03*
M02*
