G04 #@! TF.GenerationSoftware,KiCad,Pcbnew,10.0.1*
G04 #@! TF.CreationDate,2026-06-08T16:12:33-07:00*
G04 #@! TF.ProjectId,TMPM4KNF10AFG,544d504d-344b-44e4-9631-304146472e6b,rev?*
G04 #@! TF.SameCoordinates,Original*
G04 #@! TF.FileFunction,Soldermask,Bot*
G04 #@! TF.FilePolarity,Negative*
%FSLAX46Y46*%
G04 Gerber Fmt 4.6, Leading zero omitted, Abs format (unit mm)*
G04 Created by KiCad (PCBNEW 10.0.1) date 2026-06-08 16:12:33*
%MOMM*%
%LPD*%
G01*
G04 APERTURE LIST*
G04 Aperture macros list*
%AMRoundRect*
0 Rectangle with rounded corners*
0 $1 Rounding radius*
0 $2 $3 $4 $5 $6 $7 $8 $9 X,Y pos of 4 corners*
0 Add a 4 corners polygon primitive as box body*
4,1,4,$2,$3,$4,$5,$6,$7,$8,$9,$2,$3,0*
0 Add four circle primitives for the rounded corners*
1,1,$1+$1,$2,$3*
1,1,$1+$1,$4,$5*
1,1,$1+$1,$6,$7*
1,1,$1+$1,$8,$9*
0 Add four rect primitives between the rounded corners*
20,1,$1+$1,$2,$3,$4,$5,0*
20,1,$1+$1,$4,$5,$6,$7,0*
20,1,$1+$1,$6,$7,$8,$9,0*
20,1,$1+$1,$8,$9,$2,$3,0*%
G04 Aperture macros list end*
%ADD10R,1.800000X1.800000*%
%ADD11C,1.800000*%
%ADD12RoundRect,0.250000X-0.625000X0.350000X-0.625000X-0.350000X0.625000X-0.350000X0.625000X0.350000X0*%
%ADD13O,1.750000X1.200000*%
%ADD14RoundRect,0.250000X0.625000X-0.350000X0.625000X0.350000X-0.625000X0.350000X-0.625000X-0.350000X0*%
%ADD15RoundRect,0.250000X-0.600000X-0.600000X0.600000X-0.600000X0.600000X0.600000X-0.600000X0.600000X0*%
%ADD16C,1.700000*%
%ADD17RoundRect,0.250000X-0.350000X-0.625000X0.350000X-0.625000X0.350000X0.625000X-0.350000X0.625000X0*%
%ADD18O,1.200000X1.750000*%
%ADD19R,1.700000X1.700000*%
%ADD20C,1.371600*%
%ADD21RoundRect,0.250000X0.475000X-0.337500X0.475000X0.337500X-0.475000X0.337500X-0.475000X-0.337500X0*%
%ADD22RoundRect,0.250000X0.350000X0.450000X-0.350000X0.450000X-0.350000X-0.450000X0.350000X-0.450000X0*%
%ADD23RoundRect,0.250000X-0.450000X0.350000X-0.450000X-0.350000X0.450000X-0.350000X0.450000X0.350000X0*%
%ADD24RoundRect,0.250000X-0.337500X-0.475000X0.337500X-0.475000X0.337500X0.475000X-0.337500X0.475000X0*%
%ADD25RoundRect,0.250000X0.450000X-0.350000X0.450000X0.350000X-0.450000X0.350000X-0.450000X-0.350000X0*%
%ADD26RoundRect,0.250000X0.337500X0.475000X-0.337500X0.475000X-0.337500X-0.475000X0.337500X-0.475000X0*%
G04 APERTURE END LIST*
D10*
X108115000Y-76490000D03*
D11*
X108115000Y-73950000D03*
D12*
X112300000Y-104500000D03*
D13*
X112300000Y-106500000D03*
X112300000Y-108500000D03*
X112300000Y-110500000D03*
X112300000Y-112500000D03*
X112300000Y-114500000D03*
D10*
X90675000Y-61435000D03*
D11*
X88135000Y-61435000D03*
D14*
X45950000Y-114500000D03*
D13*
X45950000Y-112500000D03*
X45950000Y-110500000D03*
X45950000Y-108500000D03*
X45950000Y-106500000D03*
X45950000Y-104500000D03*
D15*
X99400000Y-86675000D03*
X105900000Y-86675000D03*
D16*
X99400000Y-91175000D03*
X105900000Y-91175000D03*
X102650000Y-93025000D03*
D10*
X63600000Y-61435000D03*
D11*
X61060000Y-61435000D03*
D17*
X85100000Y-139950000D03*
D18*
X87100000Y-139950000D03*
D10*
X97625000Y-61435000D03*
D11*
X95085000Y-61435000D03*
D10*
X70530000Y-61435000D03*
D11*
X67990000Y-61435000D03*
D17*
X94600000Y-139950000D03*
D18*
X96600000Y-139950000D03*
D17*
X75600000Y-139950000D03*
D18*
X77600000Y-139950000D03*
D19*
X106100000Y-95250000D03*
D16*
X106100000Y-97790000D03*
X106100000Y-100330000D03*
D10*
X50615000Y-67010000D03*
D11*
X50615000Y-69550000D03*
D10*
X108115000Y-69550000D03*
D11*
X108115000Y-67010000D03*
D10*
X50600000Y-73950000D03*
D11*
X50600000Y-76490000D03*
D20*
X47700000Y-139750000D03*
X49699999Y-139750000D03*
X51700000Y-139750000D03*
D19*
X75640000Y-81150000D03*
D16*
X75640000Y-78610000D03*
X78180000Y-81150000D03*
X78180000Y-78610000D03*
X80720000Y-81150000D03*
X80720000Y-78610000D03*
X83260000Y-81150000D03*
X83260000Y-78610000D03*
X85800000Y-81150000D03*
X85800000Y-78610000D03*
D21*
X83050000Y-87287500D03*
X83050000Y-85212500D03*
D22*
X51650000Y-104600000D03*
X49650000Y-104600000D03*
D23*
X72450000Y-96100000D03*
X72450000Y-98100000D03*
D24*
X49912500Y-110600000D03*
X51987500Y-110600000D03*
D25*
X101400000Y-103450000D03*
X101400000Y-101450000D03*
D23*
X69050000Y-96100000D03*
X69050000Y-98100000D03*
X101500000Y-96550000D03*
X101500000Y-98550000D03*
D21*
X88750000Y-86287500D03*
X88750000Y-84212500D03*
D26*
X108937500Y-108550000D03*
X106862500Y-108550000D03*
M02*
