G04 #@! TF.GenerationSoftware,KiCad,Pcbnew,10.0.1*
G04 #@! TF.CreationDate,2026-06-08T16:12:32-07:00*
G04 #@! TF.ProjectId,TMPM4KNF10AFG,544d504d-344b-44e4-9631-304146472e6b,rev?*
G04 #@! TF.SameCoordinates,Original*
G04 #@! TF.FileFunction,Legend,Bot*
G04 #@! TF.FilePolarity,Positive*
%FSLAX46Y46*%
G04 Gerber Fmt 4.6, Leading zero omitted, Abs format (unit mm)*
G04 Created by KiCad (PCBNEW 10.0.1) date 2026-06-08 16:12:32*
%MOMM*%
%LPD*%
G01*
G04 APERTURE LIST*
G04 Aperture macros list*
%AMRoundRect*
0 Rectangle with rounded corners*
0 $1 Rounding radius*
0 $2 $3 $4 $5 $6 $7 $8 $9 X,Y pos of 4 corners*
0 Add a 4 corners polygon primitive as box body*
4,1,4,$2,$3,$4,$5,$6,$7,$8,$9,$2,$3,0*
0 Add four circle primitives for the rounded corners*
1,1,$1+$1,$2,$3*
1,1,$1+$1,$4,$5*
1,1,$1+$1,$6,$7*
1,1,$1+$1,$8,$9*
0 Add four rect primitives between the rounded corners*
20,1,$1+$1,$2,$3,$4,$5,0*
20,1,$1+$1,$4,$5,$6,$7,0*
20,1,$1+$1,$6,$7,$8,$9,0*
20,1,$1+$1,$8,$9,$2,$3,0*%
G04 Aperture macros list end*
%ADD10C,0.153000*%
%ADD11C,0.150000*%
%ADD12C,0.508000*%
%ADD13C,0.120000*%
%ADD14R,1.800000X1.800000*%
%ADD15C,1.800000*%
%ADD16RoundRect,0.250000X-0.625000X0.350000X-0.625000X-0.350000X0.625000X-0.350000X0.625000X0.350000X0*%
%ADD17O,1.750000X1.200000*%
%ADD18RoundRect,0.250000X0.625000X-0.350000X0.625000X0.350000X-0.625000X0.350000X-0.625000X-0.350000X0*%
%ADD19RoundRect,0.250000X-0.600000X-0.600000X0.600000X-0.600000X0.600000X0.600000X-0.600000X0.600000X0*%
%ADD20C,1.700000*%
%ADD21RoundRect,0.250000X-0.350000X-0.625000X0.350000X-0.625000X0.350000X0.625000X-0.350000X0.625000X0*%
%ADD22O,1.200000X1.750000*%
%ADD23R,1.700000X1.700000*%
%ADD24C,1.371600*%
%ADD25RoundRect,0.250000X0.475000X-0.337500X0.475000X0.337500X-0.475000X0.337500X-0.475000X-0.337500X0*%
%ADD26RoundRect,0.250000X0.350000X0.450000X-0.350000X0.450000X-0.350000X-0.450000X0.350000X-0.450000X0*%
%ADD27RoundRect,0.250000X-0.450000X0.350000X-0.450000X-0.350000X0.450000X-0.350000X0.450000X0.350000X0*%
%ADD28RoundRect,0.250000X-0.337500X-0.475000X0.337500X-0.475000X0.337500X0.475000X-0.337500X0.475000X0*%
%ADD29RoundRect,0.250000X0.450000X-0.350000X0.450000X0.350000X-0.450000X0.350000X-0.450000X-0.350000X0*%
%ADD30RoundRect,0.250000X0.337500X0.475000X-0.337500X0.475000X-0.337500X-0.475000X0.337500X-0.475000X0*%
G04 APERTURE END LIST*
D10*
X81709424Y-86133333D02*
X81757044Y-86085714D01*
X81757044Y-86085714D02*
X81804663Y-85942857D01*
X81804663Y-85942857D02*
X81804663Y-85847619D01*
X81804663Y-85847619D02*
X81757044Y-85704762D01*
X81757044Y-85704762D02*
X81661805Y-85609524D01*
X81661805Y-85609524D02*
X81566567Y-85561905D01*
X81566567Y-85561905D02*
X81376091Y-85514286D01*
X81376091Y-85514286D02*
X81233234Y-85514286D01*
X81233234Y-85514286D02*
X81042758Y-85561905D01*
X81042758Y-85561905D02*
X80947520Y-85609524D01*
X80947520Y-85609524D02*
X80852282Y-85704762D01*
X80852282Y-85704762D02*
X80804663Y-85847619D01*
X80804663Y-85847619D02*
X80804663Y-85942857D01*
X80804663Y-85942857D02*
X80852282Y-86085714D01*
X80852282Y-86085714D02*
X80899901Y-86133333D01*
X81804663Y-86609524D02*
X81804663Y-86800000D01*
X81804663Y-86800000D02*
X81757044Y-86895238D01*
X81757044Y-86895238D02*
X81709424Y-86942857D01*
X81709424Y-86942857D02*
X81566567Y-87038095D01*
X81566567Y-87038095D02*
X81376091Y-87085714D01*
X81376091Y-87085714D02*
X80995139Y-87085714D01*
X80995139Y-87085714D02*
X80899901Y-87038095D01*
X80899901Y-87038095D02*
X80852282Y-86990476D01*
X80852282Y-86990476D02*
X80804663Y-86895238D01*
X80804663Y-86895238D02*
X80804663Y-86704762D01*
X80804663Y-86704762D02*
X80852282Y-86609524D01*
X80852282Y-86609524D02*
X80899901Y-86561905D01*
X80899901Y-86561905D02*
X80995139Y-86514286D01*
X80995139Y-86514286D02*
X81233234Y-86514286D01*
X81233234Y-86514286D02*
X81328472Y-86561905D01*
X81328472Y-86561905D02*
X81376091Y-86609524D01*
X81376091Y-86609524D02*
X81423710Y-86704762D01*
X81423710Y-86704762D02*
X81423710Y-86895238D01*
X81423710Y-86895238D02*
X81376091Y-86990476D01*
X81376091Y-86990476D02*
X81328472Y-87038095D01*
X81328472Y-87038095D02*
X81233234Y-87085714D01*
D11*
X51292857Y-103404819D02*
X51626190Y-102928628D01*
X51864285Y-103404819D02*
X51864285Y-102404819D01*
X51864285Y-102404819D02*
X51483333Y-102404819D01*
X51483333Y-102404819D02*
X51388095Y-102452438D01*
X51388095Y-102452438D02*
X51340476Y-102500057D01*
X51340476Y-102500057D02*
X51292857Y-102595295D01*
X51292857Y-102595295D02*
X51292857Y-102738152D01*
X51292857Y-102738152D02*
X51340476Y-102833390D01*
X51340476Y-102833390D02*
X51388095Y-102881009D01*
X51388095Y-102881009D02*
X51483333Y-102928628D01*
X51483333Y-102928628D02*
X51864285Y-102928628D01*
X50340476Y-103404819D02*
X50911904Y-103404819D01*
X50626190Y-103404819D02*
X50626190Y-102404819D01*
X50626190Y-102404819D02*
X50721428Y-102547676D01*
X50721428Y-102547676D02*
X50816666Y-102642914D01*
X50816666Y-102642914D02*
X50911904Y-102690533D01*
X49721428Y-102404819D02*
X49626190Y-102404819D01*
X49626190Y-102404819D02*
X49530952Y-102452438D01*
X49530952Y-102452438D02*
X49483333Y-102500057D01*
X49483333Y-102500057D02*
X49435714Y-102595295D01*
X49435714Y-102595295D02*
X49388095Y-102785771D01*
X49388095Y-102785771D02*
X49388095Y-103023866D01*
X49388095Y-103023866D02*
X49435714Y-103214342D01*
X49435714Y-103214342D02*
X49483333Y-103309580D01*
X49483333Y-103309580D02*
X49530952Y-103357200D01*
X49530952Y-103357200D02*
X49626190Y-103404819D01*
X49626190Y-103404819D02*
X49721428Y-103404819D01*
X49721428Y-103404819D02*
X49816666Y-103357200D01*
X49816666Y-103357200D02*
X49864285Y-103309580D01*
X49864285Y-103309580D02*
X49911904Y-103214342D01*
X49911904Y-103214342D02*
X49959523Y-103023866D01*
X49959523Y-103023866D02*
X49959523Y-102785771D01*
X49959523Y-102785771D02*
X49911904Y-102595295D01*
X49911904Y-102595295D02*
X49864285Y-102500057D01*
X49864285Y-102500057D02*
X49816666Y-102452438D01*
X49816666Y-102452438D02*
X49721428Y-102404819D01*
X71254819Y-96457142D02*
X70778628Y-96123809D01*
X71254819Y-95885714D02*
X70254819Y-95885714D01*
X70254819Y-95885714D02*
X70254819Y-96266666D01*
X70254819Y-96266666D02*
X70302438Y-96361904D01*
X70302438Y-96361904D02*
X70350057Y-96409523D01*
X70350057Y-96409523D02*
X70445295Y-96457142D01*
X70445295Y-96457142D02*
X70588152Y-96457142D01*
X70588152Y-96457142D02*
X70683390Y-96409523D01*
X70683390Y-96409523D02*
X70731009Y-96361904D01*
X70731009Y-96361904D02*
X70778628Y-96266666D01*
X70778628Y-96266666D02*
X70778628Y-95885714D01*
X71254819Y-97409523D02*
X71254819Y-96838095D01*
X71254819Y-97123809D02*
X70254819Y-97123809D01*
X70254819Y-97123809D02*
X70397676Y-97028571D01*
X70397676Y-97028571D02*
X70492914Y-96933333D01*
X70492914Y-96933333D02*
X70540533Y-96838095D01*
X70588152Y-98266666D02*
X71254819Y-98266666D01*
X70207200Y-98028571D02*
X70921485Y-97790476D01*
X70921485Y-97790476D02*
X70921485Y-98409523D01*
X51592857Y-112639580D02*
X51640476Y-112687200D01*
X51640476Y-112687200D02*
X51783333Y-112734819D01*
X51783333Y-112734819D02*
X51878571Y-112734819D01*
X51878571Y-112734819D02*
X52021428Y-112687200D01*
X52021428Y-112687200D02*
X52116666Y-112591961D01*
X52116666Y-112591961D02*
X52164285Y-112496723D01*
X52164285Y-112496723D02*
X52211904Y-112306247D01*
X52211904Y-112306247D02*
X52211904Y-112163390D01*
X52211904Y-112163390D02*
X52164285Y-111972914D01*
X52164285Y-111972914D02*
X52116666Y-111877676D01*
X52116666Y-111877676D02*
X52021428Y-111782438D01*
X52021428Y-111782438D02*
X51878571Y-111734819D01*
X51878571Y-111734819D02*
X51783333Y-111734819D01*
X51783333Y-111734819D02*
X51640476Y-111782438D01*
X51640476Y-111782438D02*
X51592857Y-111830057D01*
X51211904Y-111830057D02*
X51164285Y-111782438D01*
X51164285Y-111782438D02*
X51069047Y-111734819D01*
X51069047Y-111734819D02*
X50830952Y-111734819D01*
X50830952Y-111734819D02*
X50735714Y-111782438D01*
X50735714Y-111782438D02*
X50688095Y-111830057D01*
X50688095Y-111830057D02*
X50640476Y-111925295D01*
X50640476Y-111925295D02*
X50640476Y-112020533D01*
X50640476Y-112020533D02*
X50688095Y-112163390D01*
X50688095Y-112163390D02*
X51259523Y-112734819D01*
X51259523Y-112734819D02*
X50640476Y-112734819D01*
X49783333Y-112068152D02*
X49783333Y-112734819D01*
X50021428Y-111687200D02*
X50259523Y-112401485D01*
X50259523Y-112401485D02*
X49640476Y-112401485D01*
X103504819Y-101807142D02*
X103028628Y-101473809D01*
X103504819Y-101235714D02*
X102504819Y-101235714D01*
X102504819Y-101235714D02*
X102504819Y-101616666D01*
X102504819Y-101616666D02*
X102552438Y-101711904D01*
X102552438Y-101711904D02*
X102600057Y-101759523D01*
X102600057Y-101759523D02*
X102695295Y-101807142D01*
X102695295Y-101807142D02*
X102838152Y-101807142D01*
X102838152Y-101807142D02*
X102933390Y-101759523D01*
X102933390Y-101759523D02*
X102981009Y-101711904D01*
X102981009Y-101711904D02*
X103028628Y-101616666D01*
X103028628Y-101616666D02*
X103028628Y-101235714D01*
X103504819Y-102759523D02*
X103504819Y-102188095D01*
X103504819Y-102473809D02*
X102504819Y-102473809D01*
X102504819Y-102473809D02*
X102647676Y-102378571D01*
X102647676Y-102378571D02*
X102742914Y-102283333D01*
X102742914Y-102283333D02*
X102790533Y-102188095D01*
X102504819Y-103092857D02*
X102504819Y-103759523D01*
X102504819Y-103759523D02*
X103504819Y-103330952D01*
X67854819Y-96457142D02*
X67378628Y-96123809D01*
X67854819Y-95885714D02*
X66854819Y-95885714D01*
X66854819Y-95885714D02*
X66854819Y-96266666D01*
X66854819Y-96266666D02*
X66902438Y-96361904D01*
X66902438Y-96361904D02*
X66950057Y-96409523D01*
X66950057Y-96409523D02*
X67045295Y-96457142D01*
X67045295Y-96457142D02*
X67188152Y-96457142D01*
X67188152Y-96457142D02*
X67283390Y-96409523D01*
X67283390Y-96409523D02*
X67331009Y-96361904D01*
X67331009Y-96361904D02*
X67378628Y-96266666D01*
X67378628Y-96266666D02*
X67378628Y-95885714D01*
X67854819Y-97409523D02*
X67854819Y-96838095D01*
X67854819Y-97123809D02*
X66854819Y-97123809D01*
X66854819Y-97123809D02*
X66997676Y-97028571D01*
X66997676Y-97028571D02*
X67092914Y-96933333D01*
X67092914Y-96933333D02*
X67140533Y-96838095D01*
X66854819Y-98314285D02*
X66854819Y-97838095D01*
X66854819Y-97838095D02*
X67331009Y-97790476D01*
X67331009Y-97790476D02*
X67283390Y-97838095D01*
X67283390Y-97838095D02*
X67235771Y-97933333D01*
X67235771Y-97933333D02*
X67235771Y-98171428D01*
X67235771Y-98171428D02*
X67283390Y-98266666D01*
X67283390Y-98266666D02*
X67331009Y-98314285D01*
X67331009Y-98314285D02*
X67426247Y-98361904D01*
X67426247Y-98361904D02*
X67664342Y-98361904D01*
X67664342Y-98361904D02*
X67759580Y-98314285D01*
X67759580Y-98314285D02*
X67807200Y-98266666D01*
X67807200Y-98266666D02*
X67854819Y-98171428D01*
X67854819Y-98171428D02*
X67854819Y-97933333D01*
X67854819Y-97933333D02*
X67807200Y-97838095D01*
X67807200Y-97838095D02*
X67759580Y-97790476D01*
X100304819Y-96907142D02*
X99828628Y-96573809D01*
X100304819Y-96335714D02*
X99304819Y-96335714D01*
X99304819Y-96335714D02*
X99304819Y-96716666D01*
X99304819Y-96716666D02*
X99352438Y-96811904D01*
X99352438Y-96811904D02*
X99400057Y-96859523D01*
X99400057Y-96859523D02*
X99495295Y-96907142D01*
X99495295Y-96907142D02*
X99638152Y-96907142D01*
X99638152Y-96907142D02*
X99733390Y-96859523D01*
X99733390Y-96859523D02*
X99781009Y-96811904D01*
X99781009Y-96811904D02*
X99828628Y-96716666D01*
X99828628Y-96716666D02*
X99828628Y-96335714D01*
X100304819Y-97859523D02*
X100304819Y-97288095D01*
X100304819Y-97573809D02*
X99304819Y-97573809D01*
X99304819Y-97573809D02*
X99447676Y-97478571D01*
X99447676Y-97478571D02*
X99542914Y-97383333D01*
X99542914Y-97383333D02*
X99590533Y-97288095D01*
X99304819Y-98716666D02*
X99304819Y-98526190D01*
X99304819Y-98526190D02*
X99352438Y-98430952D01*
X99352438Y-98430952D02*
X99400057Y-98383333D01*
X99400057Y-98383333D02*
X99542914Y-98288095D01*
X99542914Y-98288095D02*
X99733390Y-98240476D01*
X99733390Y-98240476D02*
X100114342Y-98240476D01*
X100114342Y-98240476D02*
X100209580Y-98288095D01*
X100209580Y-98288095D02*
X100257200Y-98335714D01*
X100257200Y-98335714D02*
X100304819Y-98430952D01*
X100304819Y-98430952D02*
X100304819Y-98621428D01*
X100304819Y-98621428D02*
X100257200Y-98716666D01*
X100257200Y-98716666D02*
X100209580Y-98764285D01*
X100209580Y-98764285D02*
X100114342Y-98811904D01*
X100114342Y-98811904D02*
X99876247Y-98811904D01*
X99876247Y-98811904D02*
X99781009Y-98764285D01*
X99781009Y-98764285D02*
X99733390Y-98716666D01*
X99733390Y-98716666D02*
X99685771Y-98621428D01*
X99685771Y-98621428D02*
X99685771Y-98430952D01*
X99685771Y-98430952D02*
X99733390Y-98335714D01*
X99733390Y-98335714D02*
X99781009Y-98288095D01*
X99781009Y-98288095D02*
X99876247Y-98240476D01*
D10*
X87459424Y-84607142D02*
X87507044Y-84559523D01*
X87507044Y-84559523D02*
X87554663Y-84416666D01*
X87554663Y-84416666D02*
X87554663Y-84321428D01*
X87554663Y-84321428D02*
X87507044Y-84178571D01*
X87507044Y-84178571D02*
X87411805Y-84083333D01*
X87411805Y-84083333D02*
X87316567Y-84035714D01*
X87316567Y-84035714D02*
X87126091Y-83988095D01*
X87126091Y-83988095D02*
X86983234Y-83988095D01*
X86983234Y-83988095D02*
X86792758Y-84035714D01*
X86792758Y-84035714D02*
X86697520Y-84083333D01*
X86697520Y-84083333D02*
X86602282Y-84178571D01*
X86602282Y-84178571D02*
X86554663Y-84321428D01*
X86554663Y-84321428D02*
X86554663Y-84416666D01*
X86554663Y-84416666D02*
X86602282Y-84559523D01*
X86602282Y-84559523D02*
X86649901Y-84607142D01*
X87554663Y-85559523D02*
X87554663Y-84988095D01*
X87554663Y-85273809D02*
X86554663Y-85273809D01*
X86554663Y-85273809D02*
X86697520Y-85178571D01*
X86697520Y-85178571D02*
X86792758Y-85083333D01*
X86792758Y-85083333D02*
X86840377Y-84988095D01*
X86554663Y-86178571D02*
X86554663Y-86273809D01*
X86554663Y-86273809D02*
X86602282Y-86369047D01*
X86602282Y-86369047D02*
X86649901Y-86416666D01*
X86649901Y-86416666D02*
X86745139Y-86464285D01*
X86745139Y-86464285D02*
X86935615Y-86511904D01*
X86935615Y-86511904D02*
X87173710Y-86511904D01*
X87173710Y-86511904D02*
X87364186Y-86464285D01*
X87364186Y-86464285D02*
X87459424Y-86416666D01*
X87459424Y-86416666D02*
X87507044Y-86369047D01*
X87507044Y-86369047D02*
X87554663Y-86273809D01*
X87554663Y-86273809D02*
X87554663Y-86178571D01*
X87554663Y-86178571D02*
X87507044Y-86083333D01*
X87507044Y-86083333D02*
X87459424Y-86035714D01*
X87459424Y-86035714D02*
X87364186Y-85988095D01*
X87364186Y-85988095D02*
X87173710Y-85940476D01*
X87173710Y-85940476D02*
X86935615Y-85940476D01*
X86935615Y-85940476D02*
X86745139Y-85988095D01*
X86745139Y-85988095D02*
X86649901Y-86035714D01*
X86649901Y-86035714D02*
X86602282Y-86083333D01*
X86602282Y-86083333D02*
X86554663Y-86178571D01*
D11*
X108542857Y-107229580D02*
X108590476Y-107277200D01*
X108590476Y-107277200D02*
X108733333Y-107324819D01*
X108733333Y-107324819D02*
X108828571Y-107324819D01*
X108828571Y-107324819D02*
X108971428Y-107277200D01*
X108971428Y-107277200D02*
X109066666Y-107181961D01*
X109066666Y-107181961D02*
X109114285Y-107086723D01*
X109114285Y-107086723D02*
X109161904Y-106896247D01*
X109161904Y-106896247D02*
X109161904Y-106753390D01*
X109161904Y-106753390D02*
X109114285Y-106562914D01*
X109114285Y-106562914D02*
X109066666Y-106467676D01*
X109066666Y-106467676D02*
X108971428Y-106372438D01*
X108971428Y-106372438D02*
X108828571Y-106324819D01*
X108828571Y-106324819D02*
X108733333Y-106324819D01*
X108733333Y-106324819D02*
X108590476Y-106372438D01*
X108590476Y-106372438D02*
X108542857Y-106420057D01*
X108161904Y-106420057D02*
X108114285Y-106372438D01*
X108114285Y-106372438D02*
X108019047Y-106324819D01*
X108019047Y-106324819D02*
X107780952Y-106324819D01*
X107780952Y-106324819D02*
X107685714Y-106372438D01*
X107685714Y-106372438D02*
X107638095Y-106420057D01*
X107638095Y-106420057D02*
X107590476Y-106515295D01*
X107590476Y-106515295D02*
X107590476Y-106610533D01*
X107590476Y-106610533D02*
X107638095Y-106753390D01*
X107638095Y-106753390D02*
X108209523Y-107324819D01*
X108209523Y-107324819D02*
X107590476Y-107324819D01*
X106733333Y-106324819D02*
X106923809Y-106324819D01*
X106923809Y-106324819D02*
X107019047Y-106372438D01*
X107019047Y-106372438D02*
X107066666Y-106420057D01*
X107066666Y-106420057D02*
X107161904Y-106562914D01*
X107161904Y-106562914D02*
X107209523Y-106753390D01*
X107209523Y-106753390D02*
X107209523Y-107134342D01*
X107209523Y-107134342D02*
X107161904Y-107229580D01*
X107161904Y-107229580D02*
X107114285Y-107277200D01*
X107114285Y-107277200D02*
X107019047Y-107324819D01*
X107019047Y-107324819D02*
X106828571Y-107324819D01*
X106828571Y-107324819D02*
X106733333Y-107277200D01*
X106733333Y-107277200D02*
X106685714Y-107229580D01*
X106685714Y-107229580D02*
X106638095Y-107134342D01*
X106638095Y-107134342D02*
X106638095Y-106896247D01*
X106638095Y-106896247D02*
X106685714Y-106801009D01*
X106685714Y-106801009D02*
X106733333Y-106753390D01*
X106733333Y-106753390D02*
X106828571Y-106705771D01*
X106828571Y-106705771D02*
X107019047Y-106705771D01*
X107019047Y-106705771D02*
X107114285Y-106753390D01*
X107114285Y-106753390D02*
X107161904Y-106801009D01*
X107161904Y-106801009D02*
X107209523Y-106896247D01*
D12*
X44502399Y-139750000D02*
G75*
G02*
X43740399Y-139750000I-381000J0D01*
G01*
X43740399Y-139750000D02*
G75*
G02*
X44502399Y-139750000I381000J0D01*
G01*
D13*
X82315000Y-86511252D02*
X82315000Y-85988748D01*
X83785000Y-86511252D02*
X83785000Y-85988748D01*
X50877064Y-103865000D02*
X50422936Y-103865000D01*
X50877064Y-105335000D02*
X50422936Y-105335000D01*
X71715000Y-96872936D02*
X71715000Y-97327064D01*
X73185000Y-96872936D02*
X73185000Y-97327064D01*
X50688748Y-109865000D02*
X51211252Y-109865000D01*
X50688748Y-111335000D02*
X51211252Y-111335000D01*
X100665000Y-102677064D02*
X100665000Y-102222936D01*
X102135000Y-102677064D02*
X102135000Y-102222936D01*
X68315000Y-96872936D02*
X68315000Y-97327064D01*
X69785000Y-96872936D02*
X69785000Y-97327064D01*
X100765000Y-97322936D02*
X100765000Y-97777064D01*
X102235000Y-97322936D02*
X102235000Y-97777064D01*
X88015000Y-85511252D02*
X88015000Y-84988748D01*
X89485000Y-85511252D02*
X89485000Y-84988748D01*
X108161252Y-107815000D02*
X107638748Y-107815000D01*
X108161252Y-109285000D02*
X107638748Y-109285000D01*
%LPC*%
D14*
X108115000Y-76490000D03*
D15*
X108115000Y-73950000D03*
D16*
X112300000Y-104500000D03*
D17*
X112300000Y-106500000D03*
X112300000Y-108500000D03*
X112300000Y-110500000D03*
X112300000Y-112500000D03*
X112300000Y-114500000D03*
D14*
X90675000Y-61435000D03*
D15*
X88135000Y-61435000D03*
D18*
X45950000Y-114500000D03*
D17*
X45950000Y-112500000D03*
X45950000Y-110500000D03*
X45950000Y-108500000D03*
X45950000Y-106500000D03*
X45950000Y-104500000D03*
D19*
X99400000Y-86675000D03*
X105900000Y-86675000D03*
D20*
X99400000Y-91175000D03*
X105900000Y-91175000D03*
X102650000Y-93025000D03*
D14*
X63600000Y-61435000D03*
D15*
X61060000Y-61435000D03*
D21*
X85100000Y-139950000D03*
D22*
X87100000Y-139950000D03*
D14*
X97625000Y-61435000D03*
D15*
X95085000Y-61435000D03*
D14*
X70530000Y-61435000D03*
D15*
X67990000Y-61435000D03*
D21*
X94600000Y-139950000D03*
D22*
X96600000Y-139950000D03*
D21*
X75600000Y-139950000D03*
D22*
X77600000Y-139950000D03*
D23*
X106100000Y-95250000D03*
D20*
X106100000Y-97790000D03*
X106100000Y-100330000D03*
D14*
X50615000Y-67010000D03*
D15*
X50615000Y-69550000D03*
D14*
X108115000Y-69550000D03*
D15*
X108115000Y-67010000D03*
D14*
X50600000Y-73950000D03*
D15*
X50600000Y-76490000D03*
D24*
X47700000Y-139750000D03*
X49699999Y-139750000D03*
X51700000Y-139750000D03*
D23*
X75640000Y-81150000D03*
D20*
X75640000Y-78610000D03*
X78180000Y-81150000D03*
X78180000Y-78610000D03*
X80720000Y-81150000D03*
X80720000Y-78610000D03*
X83260000Y-81150000D03*
X83260000Y-78610000D03*
X85800000Y-81150000D03*
X85800000Y-78610000D03*
D25*
X83050000Y-87287500D03*
X83050000Y-85212500D03*
D26*
X51650000Y-104600000D03*
X49650000Y-104600000D03*
D27*
X72450000Y-96100000D03*
X72450000Y-98100000D03*
D28*
X49912500Y-110600000D03*
X51987500Y-110600000D03*
D29*
X101400000Y-103450000D03*
X101400000Y-101450000D03*
D27*
X69050000Y-96100000D03*
X69050000Y-98100000D03*
X101500000Y-96550000D03*
X101500000Y-98550000D03*
D25*
X88750000Y-86287500D03*
X88750000Y-84212500D03*
D30*
X108937500Y-108550000D03*
X106862500Y-108550000D03*
%LPD*%
M02*
