G04 #@! TF.GenerationSoftware,KiCad,Pcbnew,10.0.1*
G04 #@! TF.CreationDate,2026-06-08T16:12:32-07:00*
G04 #@! TF.ProjectId,TMPM4KNF10AFG,544d504d-344b-44e4-9631-304146472e6b,rev?*
G04 #@! TF.SameCoordinates,Original*
G04 #@! TF.FileFunction,Soldermask,Top*
G04 #@! TF.FilePolarity,Negative*
%FSLAX46Y46*%
G04 Gerber Fmt 4.6, Leading zero omitted, Abs format (unit mm)*
G04 Created by KiCad (PCBNEW 10.0.1) date 2026-06-08 16:12:32*
%MOMM*%
%LPD*%
G01*
G04 APERTURE LIST*
G04 Aperture macros list*
%AMRoundRect*
0 Rectangle with rounded corners*
0 $1 Rounding radius*
0 $2 $3 $4 $5 $6 $7 $8 $9 X,Y pos of 4 corners*
0 Add a 4 corners polygon primitive as box body*
4,1,4,$2,$3,$4,$5,$6,$7,$8,$9,$2,$3,0*
0 Add four circle primitives for the rounded corners*
1,1,$1+$1,$2,$3*
1,1,$1+$1,$4,$5*
1,1,$1+$1,$6,$7*
1,1,$1+$1,$8,$9*
0 Add four rect primitives between the rounded corners*
20,1,$1+$1,$2,$3,$4,$5,0*
20,1,$1+$1,$4,$5,$6,$7,0*
20,1,$1+$1,$6,$7,$8,$9,0*
20,1,$1+$1,$8,$9,$2,$3,0*%
G04 Aperture macros list end*
%ADD10RoundRect,0.250000X0.337500X0.475000X-0.337500X0.475000X-0.337500X-0.475000X0.337500X-0.475000X0*%
%ADD11RoundRect,0.250000X-0.337500X-0.475000X0.337500X-0.475000X0.337500X0.475000X-0.337500X0.475000X0*%
%ADD12RoundRect,0.250000X-0.350000X-0.450000X0.350000X-0.450000X0.350000X0.450000X-0.350000X0.450000X0*%
%ADD13R,1.969999X0.532600*%
%ADD14R,2.387600X3.200400*%
%ADD15R,1.800000X1.800000*%
%ADD16C,1.800000*%
%ADD17RoundRect,0.250000X0.450000X-0.350000X0.450000X0.350000X-0.450000X0.350000X-0.450000X-0.350000X0*%
%ADD18RoundRect,0.250000X-0.475000X0.337500X-0.475000X-0.337500X0.475000X-0.337500X0.475000X0.337500X0*%
%ADD19R,0.558000X0.604799*%
%ADD20RoundRect,0.250000X0.350000X0.450000X-0.350000X0.450000X-0.350000X-0.450000X0.350000X-0.450000X0*%
%ADD21RoundRect,0.250000X-0.625000X0.350000X-0.625000X-0.350000X0.625000X-0.350000X0.625000X0.350000X0*%
%ADD22O,1.750000X1.200000*%
%ADD23RoundRect,0.250000X-0.450000X0.350000X-0.450000X-0.350000X0.450000X-0.350000X0.450000X0.350000X0*%
%ADD24R,0.604799X0.558000*%
%ADD25RoundRect,0.102000X-2.075000X-0.950000X2.075000X-0.950000X2.075000X0.950000X-2.075000X0.950000X0*%
%ADD26RoundRect,0.250000X0.625000X-0.350000X0.625000X0.350000X-0.625000X0.350000X-0.625000X-0.350000X0*%
%ADD27RoundRect,0.250000X-0.600000X-0.600000X0.600000X-0.600000X0.600000X0.600000X-0.600000X0.600000X0*%
%ADD28C,1.700000*%
%ADD29RoundRect,0.102000X0.875000X1.500000X-0.875000X1.500000X-0.875000X-1.500000X0.875000X-1.500000X0*%
%ADD30RoundRect,0.250000X0.475000X-0.337500X0.475000X0.337500X-0.475000X0.337500X-0.475000X-0.337500X0*%
%ADD31RoundRect,0.250000X-0.350000X-0.625000X0.350000X-0.625000X0.350000X0.625000X-0.350000X0.625000X0*%
%ADD32O,1.200000X1.750000*%
%ADD33RoundRect,0.102000X2.075000X0.950000X-2.075000X0.950000X-2.075000X-0.950000X2.075000X-0.950000X0*%
%ADD34R,1.358900X0.279400*%
%ADD35R,0.279400X1.358900*%
%ADD36R,1.700000X1.700000*%
%ADD37R,0.481800X1.157199*%
%ADD38RoundRect,0.250000X-0.275000X-0.350000X0.275000X-0.350000X0.275000X0.350000X-0.275000X0.350000X0*%
%ADD39C,1.371600*%
%ADD40RoundRect,0.250000X0.300000X0.300000X-0.300000X0.300000X-0.300000X-0.300000X0.300000X-0.300000X0*%
G04 APERTURE END LIST*
D10*
X54637500Y-120750000D03*
X52562500Y-120750000D03*
D11*
X101512500Y-122800000D03*
X103587500Y-122800000D03*
D10*
X87187500Y-89900000D03*
X85112500Y-89900000D03*
D12*
X84700000Y-65300000D03*
X86700000Y-65300000D03*
D13*
X94572400Y-116350000D03*
X94572400Y-117620000D03*
X94572400Y-118890000D03*
X94572400Y-120160000D03*
X99500000Y-120160000D03*
X99500000Y-118890000D03*
X99500000Y-117620000D03*
X99500000Y-116350000D03*
D14*
X97036200Y-118255000D03*
D15*
X108115000Y-76490000D03*
D16*
X108115000Y-73950000D03*
D17*
X103350000Y-116250000D03*
X103350000Y-114250000D03*
D11*
X65512500Y-101300000D03*
X67587500Y-101300000D03*
X58750000Y-99300000D03*
X60825000Y-99300000D03*
D18*
X84950000Y-113362500D03*
X84950000Y-115437500D03*
D12*
X91935952Y-84254961D03*
X93935952Y-84254961D03*
D19*
X69599998Y-136850000D03*
X71500000Y-136850000D03*
X70549999Y-134365600D03*
D20*
X98300000Y-73300000D03*
X96300000Y-73300000D03*
D21*
X112300000Y-104500000D03*
D22*
X112300000Y-106500000D03*
X112300000Y-108500000D03*
X112300000Y-110500000D03*
X112300000Y-112500000D03*
X112300000Y-114500000D03*
D17*
X97650000Y-67850000D03*
X97650000Y-65850000D03*
D23*
X72000000Y-69700000D03*
X72000000Y-71700000D03*
D24*
X91207800Y-68394499D03*
X91207800Y-70294501D03*
X93692200Y-69344500D03*
D25*
X79925000Y-132950000D03*
X86875000Y-132950000D03*
D10*
X54637500Y-117350000D03*
X52562500Y-117350000D03*
D23*
X75600000Y-123150000D03*
X75600000Y-125150000D03*
D15*
X90675000Y-61435000D03*
D16*
X88135000Y-61435000D03*
D12*
X93935952Y-87854961D03*
X95935952Y-87854961D03*
D26*
X45950000Y-114500000D03*
D22*
X45950000Y-112500000D03*
X45950000Y-110500000D03*
X45950000Y-108500000D03*
X45950000Y-106500000D03*
X45950000Y-104500000D03*
D12*
X69500000Y-141550000D03*
X71500000Y-141550000D03*
D18*
X97700000Y-101450000D03*
X97700000Y-103525000D03*
D23*
X89600000Y-73000000D03*
X89600000Y-75000000D03*
D20*
X86500000Y-73050000D03*
X84500000Y-73050000D03*
D23*
X60500000Y-70100000D03*
X60500000Y-72100000D03*
D27*
X99400000Y-86675000D03*
X105900000Y-86675000D03*
D28*
X99400000Y-91175000D03*
X105900000Y-91175000D03*
X102650000Y-93025000D03*
D20*
X51700000Y-132250000D03*
X49700000Y-132250000D03*
D18*
X56900000Y-125150000D03*
X56900000Y-127225000D03*
D15*
X63600000Y-61435000D03*
D16*
X61060000Y-61435000D03*
D17*
X59550000Y-66750000D03*
X59550000Y-64750000D03*
X63950000Y-66750000D03*
X63950000Y-64750000D03*
D29*
X66400000Y-122350000D03*
X59650000Y-122350000D03*
D11*
X66262500Y-73300000D03*
X68337500Y-73300000D03*
D30*
X97800000Y-84192461D03*
X97800000Y-82117461D03*
X81400000Y-68687500D03*
X81400000Y-66612500D03*
D31*
X85100000Y-139950000D03*
D32*
X87100000Y-139950000D03*
D15*
X97625000Y-61435000D03*
D16*
X95085000Y-61435000D03*
D24*
X101200000Y-71399998D03*
X101200000Y-73300000D03*
X103684400Y-72349999D03*
D18*
X105100000Y-62712500D03*
X105100000Y-64787500D03*
D11*
X71650000Y-102750000D03*
X73725000Y-102750000D03*
D33*
X65352500Y-138050000D03*
X58402500Y-138050000D03*
D10*
X90787500Y-120100000D03*
X88712500Y-120100000D03*
D18*
X101750000Y-62712500D03*
X101750000Y-64787500D03*
D15*
X70530000Y-61435000D03*
D16*
X67990000Y-61435000D03*
D34*
X77671250Y-96254960D03*
X77671250Y-96754962D03*
X77671250Y-97254961D03*
X77671250Y-97754960D03*
X77671250Y-98254961D03*
X77671250Y-98754960D03*
X77671250Y-99254962D03*
X77671250Y-99754961D03*
X77671250Y-100254960D03*
X77671250Y-100754961D03*
X77671250Y-101254960D03*
X77671250Y-101754959D03*
X77671250Y-102254961D03*
X77671250Y-102754960D03*
X77671250Y-103254962D03*
X77671250Y-103754961D03*
X77671250Y-104254960D03*
X77671250Y-104754961D03*
X77671250Y-105254960D03*
X77671250Y-105754962D03*
X77671250Y-106254961D03*
X77671250Y-106754960D03*
X77671250Y-107254961D03*
X77671250Y-107754960D03*
X77671250Y-108254962D03*
D35*
X79449999Y-110033711D03*
X79950001Y-110033711D03*
X80450000Y-110033711D03*
X80949999Y-110033711D03*
X81450000Y-110033711D03*
X81949999Y-110033711D03*
X82450001Y-110033711D03*
X82950000Y-110033711D03*
X83449999Y-110033711D03*
X83950000Y-110033711D03*
X84449999Y-110033711D03*
X84950001Y-110033711D03*
X85450000Y-110033711D03*
X85949999Y-110033711D03*
X86450001Y-110033711D03*
X86950000Y-110033711D03*
X87450001Y-110033711D03*
X87950000Y-110033711D03*
X88449999Y-110033711D03*
X88950001Y-110033711D03*
X89450000Y-110033711D03*
X89950001Y-110033711D03*
X90450000Y-110033711D03*
X90949999Y-110033711D03*
X91450001Y-110033711D03*
D34*
X93228750Y-108254962D03*
X93228750Y-107754960D03*
X93228750Y-107254961D03*
X93228750Y-106754962D03*
X93228750Y-106254961D03*
X93228750Y-105754962D03*
X93228750Y-105254960D03*
X93228750Y-104754961D03*
X93228750Y-104254962D03*
X93228750Y-103754961D03*
X93228750Y-103254962D03*
X93228750Y-102754960D03*
X93228750Y-102254961D03*
X93228750Y-101754962D03*
X93228750Y-101254960D03*
X93228750Y-100754961D03*
X93228750Y-100254960D03*
X93228750Y-99754961D03*
X93228750Y-99254962D03*
X93228750Y-98754960D03*
X93228750Y-98254961D03*
X93228750Y-97754960D03*
X93228750Y-97254961D03*
X93228750Y-96754962D03*
X93228750Y-96254960D03*
D35*
X91450001Y-94476211D03*
X90949999Y-94476211D03*
X90450000Y-94476211D03*
X89950001Y-94476211D03*
X89450000Y-94476211D03*
X88950001Y-94476211D03*
X88449999Y-94476211D03*
X87950000Y-94476211D03*
X87450001Y-94476211D03*
X86950000Y-94476211D03*
X86450001Y-94476211D03*
X85949999Y-94476211D03*
X85450000Y-94476211D03*
X84950001Y-94476211D03*
X84449999Y-94476211D03*
X83950000Y-94476211D03*
X83449999Y-94476211D03*
X82950000Y-94476211D03*
X82450001Y-94476211D03*
X81949999Y-94476211D03*
X81450000Y-94476211D03*
X80949999Y-94476211D03*
X80450000Y-94476211D03*
X79950001Y-94476211D03*
X79449999Y-94476211D03*
D31*
X94600000Y-139950000D03*
D32*
X96600000Y-139950000D03*
D18*
X81550000Y-113362500D03*
X81550000Y-115437500D03*
D11*
X66250000Y-69900000D03*
X68325000Y-69900000D03*
D31*
X75600000Y-139950000D03*
D32*
X77600000Y-139950000D03*
D24*
X70615600Y-65249999D03*
X70615600Y-67150001D03*
X73100000Y-66200000D03*
D36*
X106100000Y-95250000D03*
D28*
X106100000Y-97790000D03*
X106100000Y-100330000D03*
D11*
X84662500Y-68650000D03*
X86737500Y-68650000D03*
D10*
X56725000Y-76300000D03*
X54650000Y-76300000D03*
D20*
X50950000Y-80250000D03*
X48950000Y-80250000D03*
D37*
X69295000Y-128050000D03*
X70565000Y-128050000D03*
X71835000Y-128050000D03*
X73105000Y-128050000D03*
X73105000Y-122512800D03*
X71835000Y-122512800D03*
X70565000Y-122512800D03*
X69295000Y-122512800D03*
D38*
X73450000Y-113350000D03*
X75750000Y-113350000D03*
D12*
X75250000Y-68400000D03*
X77250000Y-68400000D03*
D10*
X67237500Y-130750000D03*
X65162500Y-130750000D03*
D23*
X77000000Y-85500000D03*
X77000000Y-87500000D03*
D15*
X50615000Y-67010000D03*
D16*
X50615000Y-69550000D03*
D12*
X101600000Y-68100000D03*
X103600000Y-68100000D03*
D13*
X61863800Y-105860000D03*
X61863800Y-104590000D03*
X61863800Y-103320000D03*
X61863800Y-102050000D03*
X56936200Y-102050000D03*
X56936200Y-103320000D03*
X56936200Y-104590000D03*
X56936200Y-105860000D03*
D14*
X59400000Y-103955000D03*
D12*
X66300000Y-66500000D03*
X68300000Y-66500000D03*
D23*
X101200000Y-76250000D03*
X101200000Y-78250000D03*
D15*
X108115000Y-69550000D03*
D16*
X108115000Y-67010000D03*
D20*
X102600000Y-97754961D03*
X100600000Y-97754961D03*
D15*
X50600000Y-73950000D03*
D16*
X50600000Y-76490000D03*
D20*
X56687500Y-69500000D03*
X54687500Y-69500000D03*
D19*
X54699998Y-63492200D03*
X56600000Y-63492200D03*
X55649999Y-61007800D03*
D10*
X56712500Y-72950000D03*
X54637500Y-72950000D03*
D12*
X74100000Y-91500000D03*
X76100000Y-91500000D03*
D10*
X54637500Y-124150000D03*
X52562500Y-124150000D03*
D11*
X81362500Y-119550000D03*
X83437500Y-119550000D03*
D39*
X47700000Y-139750000D03*
X49699999Y-139750000D03*
X51700000Y-139750000D03*
D12*
X76537500Y-119550000D03*
X78537500Y-119550000D03*
D10*
X54750000Y-99300000D03*
X52675000Y-99300000D03*
D12*
X75600000Y-127400000D03*
X77600000Y-127400000D03*
D18*
X78200000Y-113362500D03*
X78200000Y-115437500D03*
D20*
X110200000Y-80900000D03*
X108200000Y-80900000D03*
X56000000Y-132250000D03*
X54000000Y-132250000D03*
D40*
X51700000Y-135850000D03*
X48900000Y-135850000D03*
D36*
X75640000Y-81150000D03*
D28*
X75640000Y-78610000D03*
X78180000Y-81150000D03*
X78180000Y-78610000D03*
X80720000Y-81150000D03*
X80720000Y-78610000D03*
X83260000Y-81150000D03*
X83260000Y-78610000D03*
X85800000Y-81150000D03*
X85800000Y-78610000D03*
D10*
X97437500Y-122750000D03*
X95362500Y-122750000D03*
M02*
