G04 #@! TF.GenerationSoftware,KiCad,Pcbnew,10.0.1*
G04 #@! TF.CreationDate,2026-06-08T16:12:32-07:00*
G04 #@! TF.ProjectId,TMPM4KNF10AFG,544d504d-344b-44e4-9631-304146472e6b,rev?*
G04 #@! TF.SameCoordinates,Original*
G04 #@! TF.FileFunction,Copper,L4,Bot*
G04 #@! TF.FilePolarity,Positive*
%FSLAX46Y46*%
G04 Gerber Fmt 4.6, Leading zero omitted, Abs format (unit mm)*
G04 Created by KiCad (PCBNEW 10.0.1) date 2026-06-08 16:12:32*
%MOMM*%
%LPD*%
G01*
G04 APERTURE LIST*
G04 Aperture macros list*
%AMRoundRect*
0 Rectangle with rounded corners*
0 $1 Rounding radius*
0 $2 $3 $4 $5 $6 $7 $8 $9 X,Y pos of 4 corners*
0 Add a 4 corners polygon primitive as box body*
4,1,4,$2,$3,$4,$5,$6,$7,$8,$9,$2,$3,0*
0 Add four circle primitives for the rounded corners*
1,1,$1+$1,$2,$3*
1,1,$1+$1,$4,$5*
1,1,$1+$1,$6,$7*
1,1,$1+$1,$8,$9*
0 Add four rect primitives between the rounded corners*
20,1,$1+$1,$2,$3,$4,$5,0*
20,1,$1+$1,$4,$5,$6,$7,0*
20,1,$1+$1,$6,$7,$8,$9,0*
20,1,$1+$1,$8,$9,$2,$3,0*%
G04 Aperture macros list end*
G04 #@! TA.AperFunction,ComponentPad*
%ADD10R,1.800000X1.800000*%
G04 #@! TD*
G04 #@! TA.AperFunction,ComponentPad*
%ADD11C,1.800000*%
G04 #@! TD*
G04 #@! TA.AperFunction,ComponentPad*
%ADD12RoundRect,0.250000X-0.625000X0.350000X-0.625000X-0.350000X0.625000X-0.350000X0.625000X0.350000X0*%
G04 #@! TD*
G04 #@! TA.AperFunction,ComponentPad*
%ADD13O,1.750000X1.200000*%
G04 #@! TD*
G04 #@! TA.AperFunction,ComponentPad*
%ADD14RoundRect,0.250000X0.625000X-0.350000X0.625000X0.350000X-0.625000X0.350000X-0.625000X-0.350000X0*%
G04 #@! TD*
G04 #@! TA.AperFunction,ComponentPad*
%ADD15RoundRect,0.250000X-0.600000X-0.600000X0.600000X-0.600000X0.600000X0.600000X-0.600000X0.600000X0*%
G04 #@! TD*
G04 #@! TA.AperFunction,ComponentPad*
%ADD16C,1.700000*%
G04 #@! TD*
G04 #@! TA.AperFunction,ComponentPad*
%ADD17RoundRect,0.250000X-0.350000X-0.625000X0.350000X-0.625000X0.350000X0.625000X-0.350000X0.625000X0*%
G04 #@! TD*
G04 #@! TA.AperFunction,ComponentPad*
%ADD18O,1.200000X1.750000*%
G04 #@! TD*
G04 #@! TA.AperFunction,ComponentPad*
%ADD19R,1.700000X1.700000*%
G04 #@! TD*
G04 #@! TA.AperFunction,ComponentPad*
%ADD20C,1.371600*%
G04 #@! TD*
G04 #@! TA.AperFunction,SMDPad,CuDef*
%ADD21RoundRect,0.250000X0.475000X-0.337500X0.475000X0.337500X-0.475000X0.337500X-0.475000X-0.337500X0*%
G04 #@! TD*
G04 #@! TA.AperFunction,SMDPad,CuDef*
%ADD22RoundRect,0.250000X0.350000X0.450000X-0.350000X0.450000X-0.350000X-0.450000X0.350000X-0.450000X0*%
G04 #@! TD*
G04 #@! TA.AperFunction,SMDPad,CuDef*
%ADD23RoundRect,0.250000X-0.450000X0.350000X-0.450000X-0.350000X0.450000X-0.350000X0.450000X0.350000X0*%
G04 #@! TD*
G04 #@! TA.AperFunction,SMDPad,CuDef*
%ADD24RoundRect,0.250000X-0.337500X-0.475000X0.337500X-0.475000X0.337500X0.475000X-0.337500X0.475000X0*%
G04 #@! TD*
G04 #@! TA.AperFunction,SMDPad,CuDef*
%ADD25RoundRect,0.250000X0.450000X-0.350000X0.450000X0.350000X-0.450000X0.350000X-0.450000X-0.350000X0*%
G04 #@! TD*
G04 #@! TA.AperFunction,SMDPad,CuDef*
%ADD26RoundRect,0.250000X0.337500X0.475000X-0.337500X0.475000X-0.337500X-0.475000X0.337500X-0.475000X0*%
G04 #@! TD*
G04 #@! TA.AperFunction,ViaPad*
%ADD27C,0.600000*%
G04 #@! TD*
G04 #@! TA.AperFunction,Conductor*
%ADD28C,0.279400*%
G04 #@! TD*
G04 #@! TA.AperFunction,Conductor*
%ADD29C,0.300387*%
G04 #@! TD*
G04 #@! TA.AperFunction,Conductor*
%ADD30C,0.250000*%
G04 #@! TD*
G04 #@! TA.AperFunction,Conductor*
%ADD31C,0.500000*%
G04 #@! TD*
G04 APERTURE END LIST*
D10*
X108115000Y-76490000D03*
D11*
X108115000Y-73950000D03*
D12*
X112300000Y-104500000D03*
D13*
X112300000Y-106500000D03*
X112300000Y-108500000D03*
X112300000Y-110500000D03*
X112300000Y-112500000D03*
X112300000Y-114500000D03*
D10*
X90675000Y-61435000D03*
D11*
X88135000Y-61435000D03*
D14*
X45950000Y-114500000D03*
D13*
X45950000Y-112500000D03*
X45950000Y-110500000D03*
X45950000Y-108500000D03*
X45950000Y-106500000D03*
X45950000Y-104500000D03*
D15*
X99400000Y-86675000D03*
X105900000Y-86675000D03*
D16*
X99400000Y-91175000D03*
X105900000Y-91175000D03*
X102650000Y-93025000D03*
D10*
X63600000Y-61435000D03*
D11*
X61060000Y-61435000D03*
D17*
X85100000Y-139950000D03*
D18*
X87100000Y-139950000D03*
D10*
X97625000Y-61435000D03*
D11*
X95085000Y-61435000D03*
D10*
X70530000Y-61435000D03*
D11*
X67990000Y-61435000D03*
D17*
X94600000Y-139950000D03*
D18*
X96600000Y-139950000D03*
D17*
X75600000Y-139950000D03*
D18*
X77600000Y-139950000D03*
D19*
X106100000Y-95250000D03*
D16*
X106100000Y-97790000D03*
X106100000Y-100330000D03*
D10*
X50615000Y-67010000D03*
D11*
X50615000Y-69550000D03*
D10*
X108115000Y-69550000D03*
D11*
X108115000Y-67010000D03*
D10*
X50600000Y-73950000D03*
D11*
X50600000Y-76490000D03*
D20*
X47700000Y-139750000D03*
X49699999Y-139750000D03*
X51700000Y-139750000D03*
D19*
X75640000Y-81150000D03*
D16*
X75640000Y-78610000D03*
X78180000Y-81150000D03*
X78180000Y-78610000D03*
X80720000Y-81150000D03*
X80720000Y-78610000D03*
X83260000Y-81150000D03*
X83260000Y-78610000D03*
X85800000Y-81150000D03*
X85800000Y-78610000D03*
D21*
X83050000Y-87287500D03*
X83050000Y-85212500D03*
D22*
X51650000Y-104600000D03*
X49650000Y-104600000D03*
D23*
X72450000Y-96100000D03*
X72450000Y-98100000D03*
D24*
X49912500Y-110600000D03*
X51987500Y-110600000D03*
D25*
X101400000Y-103450000D03*
X101400000Y-101450000D03*
D23*
X69050000Y-96100000D03*
X69050000Y-98100000D03*
X101500000Y-96550000D03*
X101500000Y-98550000D03*
D21*
X88750000Y-86287500D03*
X88750000Y-84212500D03*
D26*
X108937500Y-108550000D03*
X106862500Y-108550000D03*
D27*
X58750000Y-114050000D03*
X92500000Y-120160000D03*
X57400000Y-119200000D03*
X57350000Y-114050000D03*
X63950000Y-68200000D03*
X81400000Y-70100000D03*
X103500000Y-61400000D03*
X72050000Y-113350000D03*
X58750000Y-116850000D03*
X64050000Y-102050000D03*
X57400000Y-122350000D03*
X57350000Y-116850000D03*
X58750000Y-115350000D03*
X111650000Y-80900000D03*
X58148899Y-76299999D03*
X75600000Y-121350000D03*
X97700000Y-100000000D03*
X97650000Y-69350000D03*
X72450000Y-94450000D03*
X69050000Y-94500000D03*
X51950000Y-80200000D03*
X72700000Y-91500000D03*
X66250000Y-75100000D03*
X90450000Y-84250000D03*
X88550000Y-89854961D03*
X69700000Y-102754961D03*
X57350000Y-115350000D03*
X96450000Y-118900000D03*
X58750000Y-104550000D03*
X53300000Y-76300000D03*
X63750000Y-130750000D03*
X105100000Y-66200000D03*
X101750000Y-66200000D03*
X51100000Y-120750000D03*
X93900000Y-115100000D03*
X105000000Y-68400000D03*
X51350000Y-99300000D03*
X58750000Y-103300000D03*
X69750000Y-69900000D03*
X78200000Y-116850000D03*
X69750000Y-73300000D03*
X87250000Y-120100000D03*
X88150000Y-68650000D03*
X75850000Y-102754960D03*
X64900000Y-105850000D03*
X51100000Y-117350000D03*
X71850000Y-129700000D03*
X60050000Y-103300000D03*
X97750000Y-117650000D03*
X81400000Y-65200000D03*
X83700000Y-89900000D03*
X89700000Y-132950000D03*
X88750000Y-82800000D03*
X68150000Y-128050000D03*
X51100000Y-124150000D03*
X105000000Y-122800000D03*
X83050000Y-83800000D03*
X97700000Y-104900000D03*
X77000000Y-88950000D03*
X103350000Y-112700000D03*
X53200000Y-72950000D03*
X82200000Y-112000000D03*
X93950000Y-122750000D03*
X84950000Y-116850000D03*
X53400000Y-110600000D03*
X56900000Y-128650000D03*
X97750000Y-118900000D03*
X96450000Y-117650000D03*
X62150000Y-99300000D03*
X81550000Y-116850000D03*
X60050000Y-104550000D03*
X57450000Y-98600000D03*
X98800000Y-123400000D03*
X57450000Y-99900000D03*
X56050000Y-99900000D03*
X56050000Y-98600000D03*
X100200000Y-123400000D03*
X100200000Y-122100000D03*
X98800000Y-122100000D03*
X89000000Y-113000000D03*
X92835952Y-85954961D03*
X83850000Y-92400000D03*
X71835000Y-120385000D03*
X76100000Y-132950000D03*
X96400000Y-100300000D03*
X96900000Y-98800000D03*
X87800000Y-113750000D03*
X72450000Y-99800000D03*
X70650000Y-99950000D03*
X75000000Y-106500000D03*
X74150000Y-106050000D03*
X86600000Y-91600000D03*
X85500000Y-91500000D03*
X53300000Y-104650000D03*
D28*
X103837500Y-103450000D02*
X108937500Y-108550000D01*
D29*
X112300000Y-108500000D02*
X108987500Y-108500000D01*
D28*
X102800000Y-95250000D02*
X101500000Y-96550000D01*
D29*
X49912500Y-110600000D02*
X49862500Y-110550000D01*
X108987500Y-108500000D02*
X108937500Y-108550000D01*
X49862500Y-110550000D02*
X46000000Y-110550000D01*
X72450000Y-96100000D02*
X72450000Y-94450000D01*
X46000000Y-110550000D02*
X45950000Y-110500000D01*
D28*
X101400000Y-103450000D02*
X103837500Y-103450000D01*
X106100000Y-95250000D02*
X102800000Y-95250000D01*
D29*
X69050000Y-94500000D02*
X69050000Y-96100000D01*
D30*
X106862500Y-108550000D02*
X106862500Y-111412500D01*
X109950000Y-114500000D02*
X111700000Y-114500000D01*
X53400000Y-110600000D02*
X51987500Y-110600000D01*
D28*
X49650000Y-104600000D02*
X46050000Y-104600000D01*
D29*
X83050000Y-85212500D02*
X83050000Y-83800000D01*
D28*
X46050000Y-104600000D02*
X45950000Y-104500000D01*
D30*
X106862500Y-111412500D02*
X109950000Y-114500000D01*
D29*
X88750000Y-84212500D02*
X88750000Y-82800000D01*
X89250000Y-112750000D02*
X89000000Y-113000000D01*
X108115000Y-76490000D02*
X104500000Y-80105000D01*
X89250000Y-104050000D02*
X89250000Y-112750000D01*
X104500000Y-80105000D02*
X104500000Y-88800000D01*
X104500000Y-88800000D02*
X89250000Y-104050000D01*
D28*
X91159300Y-90995661D02*
X91165387Y-90995661D01*
X92835952Y-89325096D02*
X92835952Y-85954961D01*
X83850000Y-92400000D02*
X84055339Y-92194661D01*
X86059300Y-92220348D02*
X86434613Y-92595661D01*
X92635952Y-85954961D02*
X92835952Y-85954961D01*
X91165387Y-90995661D02*
X92835952Y-89325096D01*
X84055339Y-92194661D02*
X86039700Y-92194661D01*
X89559300Y-92595661D02*
X91159300Y-90995661D01*
X86059300Y-92214261D02*
X86059300Y-92220348D01*
X86039700Y-92194661D02*
X86059300Y-92214261D01*
X86434613Y-92595661D02*
X89559300Y-92595661D01*
D29*
X73200000Y-120350000D02*
X71870000Y-120350000D01*
D31*
X71835000Y-120385000D02*
X71870000Y-120350000D01*
D29*
X76100000Y-123250000D02*
X73200000Y-120350000D01*
X76100000Y-132950000D02*
X76100000Y-123250000D01*
D28*
X113522026Y-102450000D02*
X114520600Y-103448574D01*
X112750000Y-110500000D02*
X112100000Y-110500000D01*
X101400000Y-101450000D02*
X103900000Y-101450000D01*
X103900000Y-101450000D02*
X104900000Y-102450000D01*
X114520600Y-108729400D02*
X112750000Y-110500000D01*
X97550000Y-101450000D02*
X101400000Y-101450000D01*
X96400000Y-100300000D02*
X97550000Y-101450000D01*
X104900000Y-102450000D02*
X113522026Y-102450000D01*
X114520600Y-103448574D02*
X114520600Y-108729400D01*
X113650000Y-101900000D02*
X105700000Y-101900000D01*
X102350000Y-98550000D02*
X101500000Y-98550000D01*
X115000000Y-103250000D02*
X113650000Y-101900000D01*
X96900000Y-98800000D02*
X97150000Y-98550000D01*
X105700000Y-101900000D02*
X102350000Y-98550000D01*
X97150000Y-98550000D02*
X101500000Y-98550000D01*
X115000000Y-109800000D02*
X115000000Y-103250000D01*
X112300000Y-112500000D02*
X115000000Y-109800000D01*
D29*
X100850000Y-64660000D02*
X100850000Y-91650000D01*
X100850000Y-91650000D02*
X87800000Y-104700000D01*
X97625000Y-61435000D02*
X100850000Y-64660000D01*
X87800000Y-104700000D02*
X87800000Y-113750000D01*
D28*
X91335000Y-78610000D02*
X85800000Y-78610000D01*
X99399998Y-86674998D02*
X91335000Y-78610000D01*
X72450000Y-99800000D02*
X71659300Y-100590700D01*
X59459300Y-100590700D02*
X51550000Y-108500000D01*
X71659300Y-100590700D02*
X59459300Y-100590700D01*
X51550000Y-108500000D02*
X45950000Y-108500000D01*
X72450000Y-98100000D02*
X72450000Y-99800000D01*
X45950000Y-106500000D02*
X52870614Y-106500000D01*
X69050000Y-99100000D02*
X69900000Y-99950000D01*
X69900000Y-99950000D02*
X70650000Y-99950000D01*
X69050000Y-98100000D02*
X69050000Y-99100000D01*
X59420614Y-99950000D02*
X70650000Y-99950000D01*
X52870614Y-106500000D02*
X59420614Y-99950000D01*
D29*
X71757267Y-92399613D02*
X63050000Y-83692346D01*
X75000000Y-106500000D02*
X75000000Y-94892346D01*
X63050000Y-83692346D02*
X63050000Y-61985000D01*
X63050000Y-61985000D02*
X63600000Y-61435000D01*
X72507267Y-92399613D02*
X71757267Y-92399613D01*
X75000000Y-94892346D02*
X72507267Y-92399613D01*
X74100000Y-94700000D02*
X72300000Y-92900000D01*
X52600000Y-73950000D02*
X50600000Y-73950000D01*
X74100000Y-106000000D02*
X74100000Y-94700000D01*
X74150000Y-106050000D02*
X74100000Y-106000000D01*
X72300000Y-92900000D02*
X71550000Y-92900000D01*
X71550000Y-92900000D02*
X52600000Y-73950000D01*
D28*
X86600000Y-91600000D02*
X86600000Y-88437500D01*
X86600000Y-88437500D02*
X88750000Y-86287500D01*
X85500000Y-91500000D02*
X85500000Y-89100000D01*
X83687500Y-87287500D02*
X83050000Y-87287500D01*
X85500000Y-89100000D02*
X83687500Y-87287500D01*
X78250000Y-78400000D02*
X78250000Y-78504961D01*
X51700000Y-104650000D02*
X51650000Y-104600000D01*
X53300000Y-104650000D02*
X51700000Y-104650000D01*
M02*
